# xmcd
#
# Track frame offsets:
# 150
# 15258
# 26573
# 38773
# 52773
# 66623
# 79170
# 91833
# 105825
# 120230
# 138130
# 150838
# 165495
# 180088
# 195028
#
# Disc length: 2806 seconds
#
#
# Revision: 2
# Processed by: cddbd v1.5.1PL0 Copyright (c) Steve Scherf et al.
# Submitted via: FreeRIP 2.35 
#
DISCID=910af40f
DTITLE=[eysuhl] 주현미/골든특집 - 주현미 [1992.1 세원 CCCD-0003] 골든특집
DYEAR=1991
DGENRE=Pop
TTITLE0=신사동 그사람
TTITLE1=비 내리는 영동교
TTITLE2=눈물의 부르스
TTITLE3=길면3년 짧으면 1년
TTITLE4=비에 젖은 터미널
TTITLE5=첫정
TTITLE6=이태원 연가
TTITLE7=스카이라운지에서
TTITLE8=짝사랑
TTITLE9=어제같은 이별
TTITLE10=잠깐만
TTITLE11=울면서 후회하네
TTITLE12=내마음 별과 같이
TTITLE13=꼬치미
TTITLE14=월악산
EXTD=
EXTT0=
EXTT1=
EXTT2=
EXTT3=
EXTT4=
EXTT5=
EXTT6=
EXTT7=
EXTT8=
EXTT9=
EXTT10=
EXTT11=
EXTT12=
EXTT13=
EXTT14=
PLAYORDER=
